<?xml version='1.0' encoding='utf-8'?>
<svg xmlns="http://www.w3.org/2000/svg" enable-background="new 0 0 2000 2000" version="1.1" viewBox="0 0 2e3 2e3"> <style type="text/css">.st0{fill:#C9303C;} .st1{fill:#8D292F;} .st2{fill:#76A755;} .st3{fill:#437944;} .st4{fill:#623510;} .st5{fill:#E88183;} .st6{fill:#8F282D;}</style> <path class="st0" d="m1024.4 705.48c26.19-8.52 52.33-17.19 78.58-25.53 73.25-23.25 147.39-30.33 222.87-11.81 2.01 0.49 3.92 1.43 5.88 2.16-0.59 1.03-1.93 2.69-1.67 2.99 3.18 3.74 6.97 7.01 9.88 10.93 19.35 26.12 31.66 55.44 40.48 86.63 14.44 51.07 15.3 103.18 14.96 155.64-0.26 40.2-7.26 79.42-15.06 118.46-9.23 46.18-24.62 90.49-44.64 133.26-20.86 44.53-45.65 86.73-75.43 125.68-25.75 33.68-55.44 63.88-88.1 91.29-42.42 35.61-88.07 66.14-137.8 90.14-39.89 19.25-81.18 35.45-125.09 43.44-31.89 5.8-63.73 13.85-95.89 15.71-50.77 2.93-101.84 2.4-152.17-7.74-35.16-32.01-62.86-70.05-87.18-110.47-64.11-106.57-102.63-221.83-115.68-345.63-6.77-64.24-6.75-128.21 9.04-191.13 25.82-102.87 84.6-178.04 186.78-214.47 54.66-19.49 111.04-19.82 167.91-12.03 49.88 6.84 96.59 24.62 143.89 40.48 4.66 1.56 9.6 2.31 14.4 3.43 0.58 7.04 1.16 14.09 1.74 21.13h-84.58c28.3 39.62 83.6 52.68 138.85 41.37 25.37-5.2 49.28-16.11 65.12-38.04-0.48-1.1-0.96-2.21-1.44-3.31h-83.85c0.02-4.17 0.45-8.4-0.05-12.5-0.76-6.52 1.69-9.83 8.25-10.08zm-468.55 294.43c1.05 16.23 1.64 32.51 3.33 48.67 0.83 7.95 2.92 16 5.89 23.42 2.89 7.21 8.08 6.06 11.85 0.25 1.86-2.86 2.69-6.49 3.53-9.89 5.23-21.28 9.31-42.91 15.65-63.85 23.46-77.51 66.57-143.3 122.08-201.53 8.28-8.69 16.47-17.63 23.46-27.36 9.24-12.86 4.45-22.74-11.07-22.27-13.27 0.4-27.16 1.33-39.58 5.54-45.14 15.3-77.07 46.55-99.3 87.96-26.63 49.63-34.95 103.45-35.84 159.06z"/> <path class="st1" d="m661.19 1536.7c50.33 10.15 101.4 10.67 152.17 7.74 32.16-1.85 64-9.91 95.89-15.71 43.91-7.99 85.2-24.19 125.09-43.44 49.73-24 95.38-54.53 137.8-90.14 32.66-27.42 62.34-57.61 88.1-91.29 29.78-38.94 54.57-81.14 75.43-125.68 20.03-42.77 35.42-87.08 44.64-133.26 7.8-39.04 14.8-78.26 15.06-118.46 0.34-52.46-0.52-104.57-14.96-155.64-8.82-31.2-21.13-60.51-40.48-86.63-2.91-3.92-6.7-7.19-9.88-10.93-0.26-0.31 1.07-1.96 1.67-2.99 51.53 14.15 95.53 40.59 131.22 80.53 44.5 49.8 67.38 109.36 76.76 174.43 17.55 121.87-3.28 239.27-43.64 354.05-30.37 86.38-73.22 165.79-134.28 234.61-30.1 33.92-64.07 63.13-105.52 82.71-42.51 20.08-86.31 23.33-131.53 10.88-26.96-7.42-53.78-15.56-81.09-21.37-47.86-10.19-94.3-1.16-140.26 12.87-18.91 5.78-38.17 11.27-57.67 14.13-45.08 6.6-86.93-5.19-124.65-29.25-21.32-13.6-40-31.31-59.87-47.16z"/> <path class="st2" d="m1018.4 636.48c-1.02 1.31-2.04 2.62-3.06 3.94-0.32-6.23-0.63-12.47-0.95-18.71 6.17-23.17 10.1-47.23 18.92-69.33 26.73-66.95 74.41-114.47 140.39-143.5 49.94-21.98 102.14-27.92 156-21.23 2.71 0.34 5.32 1.42 7.98 2.16-25.67 37.76-54.27 72.87-87.82 104.19-41.73 38.96-88.31 70.68-138.65 96.81-28.2 14.64-58.01 26.16-86.98 39.35-2.41 1.09-3.91 4.16-5.83 6.32z"/> <path class="st3" d="m1018.4 636.48c1.92-2.15 3.43-5.22 5.83-6.32 28.97-13.19 58.78-24.71 86.98-39.35 50.34-26.13 96.92-57.85 138.65-96.81 33.55-31.32 62.14-66.43 87.82-104.19 0.64 13.87 2.94 27.9 1.64 41.59-8.22 86.51-47.58 154.57-124.22 197.47-63.56 35.58-129.98 34.87-196.7 7.61z"/> <path class="st4" d="m1014.4 621.71c0.32 6.24 0.63 12.48 0.95 18.71 0.29 18.41 0.84 36.83 0.74 55.25-0.03 6.27 2.32 9.22 8.27 9.81-6.56 0.25-9.01 3.56-8.21 10.08 0.51 4.11 0.07 8.33 0.05 12.5-11.37-0.01-22.74-0.01-34.11-0.02-0.58-7.04-1.16-14.09-1.74-21.13 2.14-24.44-1.74-48.24-9.89-71.04-14.43-40.31-29.88-80.27-45.21-120.25-7-18.26-5.65-23.13 12.83-30.83 9.03-3.77 18.77-6.2 28.41-8.01 10.18-1.91 16.39 2.79 19.34 13.28 12.18 43.31 24.03 86.68 28.57 131.65z"/> <path class="st5" d="m555.83 999.91c0.89-55.61 9.21-109.43 35.84-159.05 22.23-41.41 54.16-72.66 99.3-87.96 12.42-4.21 26.31-5.14 39.58-5.54 15.52-0.47 20.3 9.4 11.07 22.27-6.98 9.72-15.17 18.67-23.46 27.36-55.5 58.23-98.61 124.02-122.08 201.53-6.34 20.94-10.42 42.57-15.65 63.85-0.83 3.4-1.67 7.03-3.53 9.89-3.77 5.8-8.96 6.96-11.85-0.25-2.97-7.42-5.06-15.47-5.89-23.42-1.7-16.17-2.29-32.45-3.33-48.68z"/> <path class="st6" d="m982.11 728.04c11.37 0.01 22.74 0.01 34.11 0.02h83.85c0.48 1.1 0.96 2.21 1.44 3.31-15.84 21.94-39.75 32.85-65.12 38.04-55.26 11.31-110.55-1.75-138.85-41.37h84.57z"/> </svg>